<svg width="45" height="13" viewBox="0 0 45 13" fill="none" xmlns="http://www.w3.org/2000/svg">
<path fill-rule="evenodd" clip-rule="evenodd" d="M15.0157 4V12.2067H9.57452C7.7964 12.2067 6.29183 11.0578 5.71736 9.47115H0L1.19577e-07 6.73558L5.71736 6.73558C6.29183 5.14894 7.7964 4 9.57452 4H15.0157ZM9.57452 6.73558C8.82224 6.73558 8.20673 7.35108 8.20673 8.10337C8.20673 8.85565 8.82224 9.47115 9.57452 9.47116H12.3101V6.73558H9.57452Z" fill="white"/>
<path fill-rule="evenodd" clip-rule="evenodd" d="M29.7001 12.2072L29.7001 4.00048L35.1413 4.00048C36.9194 4.00048 38.424 5.14942 38.9985 6.73606L44.7158 6.73606L44.7158 9.47164L38.9985 9.47164C38.424 11.0583 36.9194 12.2072 35.1413 12.2072L29.7001 12.2072ZM35.1413 9.47164C35.8936 9.47164 36.5091 8.85613 36.5091 8.10385C36.5091 7.35156 35.8936 6.73606 35.1413 6.73606L32.4057 6.73606L32.4057 9.47164L35.1413 9.47164Z" fill="white"/>
</svg>
